<svg xmlns="http://www.w3.org/2000/svg" width="1715" height="865" viewBox="0 0 1715 865"><defs><style>.cls-1{fill:#d7fffd;}.cls-2{fill:#bfc1bf;}.cls-3{fill:#c6e5e4;}.cls-4{fill:#dcf9f7;}.cls-5{fill:#64c8f4;}.cls-6{fill:#2d2d2d;}.cls-7{fill:#b7b7b7;}.cls-8{fill:#8e8e8e;}.cls-9{fill:#757575;}.cls-10{fill:#848484;}.cls-11{fill:#515151;}.cls-12{fill:#1c1c1c;}.cls-13{fill:#e5b39a;}.cls-14{fill:#7f5d0f;}.cls-15{fill:#96652a;}.cls-16{fill:#828282;}.cls-17{fill:#111;}.cls-18{fill:#3c8998;}.cls-19{fill:#fdd106;}.cls-20{fill:#fff;}.cls-21{fill:#dc8359;}.cls-22{fill:#44bfb7;}.cls-23{fill:#616161;}.cls-24{fill:#25a3c1;}.cls-25{fill:#fbc9a8;}.cls-26{fill:#c9314e;}.cls-27{fill:#f4f4a8;stroke:#6b6b6b;stroke-miterlimit:10;stroke-width:10.75px;}.cls-28{fill:#d3e5e2;}.cls-29{fill:#46cc4c;}.cls-30{fill:#9e9e9e;}.cls-31{fill:#f7c0a1;}.cls-32{fill:#484d4f;}.cls-33{fill:#a37205;}.cls-34{fill:#3fa9f5;}.cls-35{fill:#fcfcfc;}.cls-36{fill:#1b6a96;}.cls-37{fill:#a00a15;}</style></defs><title>combined</title><g id="Combined"><g id="Car-2" data-name="Car"><path class="cls-1" d="M512.13,0h517.74A139.13,139.13,0,0,1,1169,139.13V317a0,0,0,0,1,0,0H373a0,0,0,0,1,0,0V139.13A139.13,139.13,0,0,1,512.13,0Z"/><rect class="cls-2" x="697.13" y="23.56" width="150.48" height="47.29" rx="23.65"/><rect class="cls-2" x="763.77" y="-0.08" width="17.2" height="47.29"/><rect class="cls-3" x="703.58" y="30.01" width="137.58" height="34.4" rx="17.2"/><rect class="cls-4" x="748.73" y="38.11" width="49.44" height="4.8" rx="2.27"/><rect class="cls-4" x="755.18" y="46.71" width="36.55" height="4.8" rx="1.95"/><rect class="cls-5" x="613.9" y="132.93" width="44.7" height="89.41"/><rect class="cls-5" x="577.48" y="160.38" width="26.42" height="60.96"/><rect class="cls-5" x="941.2" y="127.87" width="32.51" height="93.47"/><polygon class="cls-5" points="707.37 127.87 670.79 146.56 670.79 221.34 707.37 221.34 737.85 221.34 737.85 87.23 707.37 87.23 707.37 127.87"/><rect class="cls-5" x="896.5" y="103.49" width="44.7" height="117.85"/><polygon class="cls-5" points="827.41 127.87 794.9 127.87 794.9 103.49 750.2 103.49 750.2 221.34 794.9 221.34 827.41 221.34 886.34 221.34 886.34 73.01 827.41 73.01 827.41 127.87"/><path class="cls-6" d="M446,210.59h650.69a71.28,71.28,0,0,1,71.28,71.28v16.86a0,0,0,0,1,0,0H374.67a0,0,0,0,1,0,0V281.87A71.28,71.28,0,0,1,446,210.59Z"/><polygon class="cls-7" points="1167.92 306.33 374.67 306.33 669.19 210 875.56 210 1167.92 306.33"/><path class="cls-8" d="M916.79,260.91a1935.83,1935.83,0,0,0-291,0l-251.14,19V523.49a7.24,7.24,0,0,0,7,7.41h779.22a7.24,7.24,0,0,0,7-7.41V279.87l-1.61-.12Z"/><rect class="cls-9" x="669.19" y="253.59" width="206.37" height="277.32" rx="9.42"/><path class="cls-10" d="M772.37,449.21h0c-52,0-94.59-34.51-94.59-76.69V274.21c0-3.45,3.49-6.27,7.74-6.27l28.05-2.82a591,591,0,0,1,117.6,0l28.05,2.82c4.26,0,7.74,2.82,7.74,6.27v98.31C867,414.7,824.4,449.21,772.37,449.21Z"/><circle class="cls-11" cx="841.16" cy="373.97" r="17.2"/><circle class="cls-11" cx="718.63" cy="326.68" r="21.5"/><circle class="cls-11" cx="826.12" cy="326.68" r="21.5"/><circle class="cls-11" cx="703.58" cy="373.97" r="17.2"/><rect class="cls-11" x="742.28" y="322.38" width="60.19" height="8.6" rx="4.3"/><rect class="cls-11" x="742.28" y="341.73" width="60.19" height="8.6" rx="4.3"/><rect class="cls-11" x="725.08" y="363.22" width="94.59" height="34.4" rx="7.12"/><path class="cls-12" d="M514.4,202a98.89,98.89,0,1,0,98.89,98.89A98.89,98.89,0,0,0,514.4,202Zm0,169.83a70.94,70.94,0,1,1,71-70.94A70.94,70.94,0,0,1,514.4,371.82Z"/><path class="cls-12" d="M502.82,283.68H526a18.51,18.51,0,0,1,18.51,18.51v20.06a8.73,8.73,0,0,1-8.73,8.73H493a8.73,8.73,0,0,1-8.73-8.73V302.19A18.51,18.51,0,0,1,502.82,283.68Z" transform="translate(1028.81 614.66) rotate(180)"/><rect class="cls-12" x="424.12" y="287.98" width="180.58" height="25.8"/><rect class="cls-12" x="499.36" y="296.58" width="30.1" height="85.99"/><path class="cls-13" d="M631.11,182.31c-.11,89.69-43,96-96,96a96,96,0,1,1,96-96Z"/><path class="cls-14" d="M608.84,147.79s-59.9,27-55.3,83.5c-43.1,11.15-134,17.63-134,17.63l4.64-133.27c.34-10.85,12.21-31.18,21.37-38.27,42-32.47,150.86-3.12,165.92,7.3,14.64,10.13,33.5-2.15,33.5-2.15S654.32,139,608.84,147.79Z"/><path class="cls-13" d="M628,193.7s7.88,11.06,4.48,13.08-10,1.76-10,1.76"/><path class="cls-15" d="M911.43,182.31c-.43,72.69,31.57,97.69,96,96,53-1.41,96-43,96-96a96,96,0,1,0-192,0Z"/><path class="cls-15" d="M914.53,193.7s-7.88,11.06-4.47,13.08,10,1.76,10,1.76"/><path d="M1119,124.28C896,18,907.3,143.22,900.35,161s15.31,13.61,15.31,13.61S941,191,941,269s178,31,178,31S1142,248,1119,124.28Z"/><rect class="cls-16" x="972.21" y="223.49" width="15.01" height="42.62"/><rect class="cls-16" x="1060.57" y="223.49" width="15.01" height="42.62"/><rect class="cls-16" x="460.35" y="223.49" width="15.01" height="42.62"/><rect class="cls-16" x="548.72" y="223.49" width="15.01" height="42.62"/><path class="cls-11" d="M437.11,259.64H593.62a61.8,61.8,0,0,1,61.8,61.8V530.9a0,0,0,0,1,0,0H375.32a0,0,0,0,1,0,0V321.44A61.8,61.8,0,0,1,437.11,259.64Z"/><rect class="cls-11" x="408.15" y="85.91" width="214.44" height="140.41" rx="38.9"/><rect class="cls-11" x="919.79" y="85.91" width="214.44" height="140.41" rx="38.9"/><path class="cls-11" d="M948.75,261.62h157a61.57,61.57,0,0,1,61.57,61.57V530.9a0,0,0,0,1,0,0H887.17a0,0,0,0,1,0,0V323.19A61.57,61.57,0,0,1,948.75,261.62Z"/><ellipse class="cls-15" cx="574.23" cy="357.53" rx="5.29" ry="3.78" transform="matrix(1, -0.09, 0.09, 1, -28.82, 51.1)"/><ellipse class="cls-15" cx="577.4" cy="344.29" rx="3.78" ry="5.29" transform="translate(108.15 825.67) rotate(-76.54)"/><path class="cls-15" d="M606.82,355.25s15.9,14.19,12.84,32.07c-1.43,8.36-2.17,29.6-16.66,37.83l21.62,37.35s32.63-39.75,12.27-87.51C616.61,339.5,606.82,355.25,606.82,355.25Z"/><path class="cls-15" d="M636.6,379.45c-5.51,23.05-14.86,16.65-37.65,11.2-25.6-6.13-26-11.54-20.48-34.59s15.11-16.43,30.14-12.84S639,369.59,636.6,379.45Z"/><rect class="cls-16" x="580" y="311.3" width="36" height="72.23" rx="6.24" transform="translate(97.29 -129.65) rotate(13.46)"/><rect class="cls-2" x="577.64" y="310.74" width="36" height="72.23" rx="6.24" transform="translate(97.1 -129.12) rotate(13.46)"/><circle class="cls-11" cx="596.95" cy="341.24" r="11.38"/><path class="cls-17" d="M585.88,312.39h20.59a6.41,6.41,0,0,1,6.41,6.41v58.76a0,0,0,0,1,0,0H579.47a0,0,0,0,1,0,0V318.8A6.41,6.41,0,0,1,585.88,312.39Z" transform="translate(96.67 -129.29) rotate(13.46)"/><circle class="cls-18" cx="582.32" cy="356.09" r="2.58"/><circle class="cls-19" cx="580.74" cy="362.71" r="2.58"/><rect class="cls-11" x="589.22" y="322.17" width="20.03" height="20.03" transform="translate(93.78 -130.36) rotate(13.46)"/><rect class="cls-20" x="588.44" y="345.58" width="14.34" height="3.54" rx="1.77" transform="translate(97.21 -129.1) rotate(13.46)"/><rect class="cls-20" x="585.45" y="356.92" width="6.57" height="1.42" transform="translate(99.41 -127.21) rotate(13.46)"/><rect class="cls-20" x="583.87" y="363.53" width="6.57" height="1.42" transform="translate(100.91 -126.66) rotate(13.46)"/><circle class="cls-21" cx="596.41" cy="359.46" r="2.58"/><circle class="cls-22" cx="594.82" cy="366.08" r="2.58"/><rect class="cls-20" x="599.53" y="360.29" width="6.57" height="1.42" transform="translate(100.59 -130.4) rotate(13.46)"/><rect class="cls-20" x="597.95" y="366.9" width="6.57" height="1.42" transform="translate(102.08 -129.85) rotate(13.46)"/><rect class="cls-23" x="600.27" y="323.47" width="10.02" height="10.02" transform="translate(93.09 -131.87) rotate(13.46)"/><rect class="cls-23" x="588.2" y="330.88" width="10.02" height="10.02" transform="translate(94.48 -128.85) rotate(13.46)"/><path class="cls-6" d="M571.65,375h33.41a0,0,0,0,1,0,0v1.62a3.77,3.77,0,0,1-3.77,3.77H575.41a3.77,3.77,0,0,1-3.77-3.77V375a0,0,0,0,1,0,0Z" transform="matrix(0.97, 0.23, -0.23, 0.97, 104.07, -126.58)"/><path class="cls-15" d="M619.92,361c5.94,6.74,7.6,15.5,3.7,19.55s-5.41-5.48-11.35-12.22-10.83-8-10.18-12.19C603.06,349.87,614,354.23,619.92,361Z"/><path class="cls-24" d="M615.33,471.43c50.3-37.66-14.34-30.16-41.53-105.36C532.44,391.73,598,484.9,615.33,471.43Z"/><rect class="cls-25" x="462.81" y="290.13" width="73.09" height="73.09"/><ellipse class="cls-15" cx="500.43" cy="246.8" rx="84.91" ry="95.98"/><path class="cls-24" d="M578.9,530.9H415.52a239.58,239.58,0,0,0,5.6-74l-5.6-70a50.22,50.22,0,0,1,50.32-50.11h62.73a50.22,50.22,0,0,1,50.33,50.11l-6,78.49a195.83,195.83,0,0,0,6,65.52Z"/><path d="M469.16,153.71c54.3-19.57,138.33,6.2,122.23,64.32-1.8,6.53-5.9,12-10.93,16.38-6.89,6-13.61,20.73-20.7,39.9-21.53,58.14,6.87,139.83-90.6,175.06-41.48,15-68.87-12.67-57.94-76.93,7.23-42.55,1.6-87.36,1.6-87.36-2-15,.93-67.69,6.81-81.56C427.28,185.5,441.87,163.54,469.16,153.71Z"/><path class="cls-15" d="M577.7,270.77s7.91,11,4.52,13.07-10,1.8-10,1.8"/><ellipse class="cls-15" cx="556.84" cy="272.09" rx="10.71" ry="16.31" transform="translate(-21.48 49.27) rotate(-4.97)"/><ellipse class="cls-25" cx="968.32" cy="357.53" rx="3.78" ry="5.29" transform="translate(528.24 1291.22) rotate(-85.03)"/><ellipse class="cls-25" cx="965.15" cy="344.29" rx="5.29" ry="3.78" transform="translate(-53.63 234.15) rotate(-13.46)"/><path class="cls-25" d="M935.72,355.25s-15.9,14.19-12.83,32.07c1.43,8.36,2.16,29.6,16.65,37.83L917.92,462.5S885.3,422.75,905.66,375C925.93,339.5,935.72,355.25,935.72,355.25Z"/><path class="cls-25" d="M905.94,379.45c5.52,23.05,14.87,16.65,37.66,11.2,25.6-6.13,26-11.54,20.48-34.59S949,339.63,933.94,343.22,903.58,369.59,905.94,379.45Z"/><rect class="cls-16" x="926.55" y="311.3" width="36" height="72.23" rx="6.24" transform="translate(1944.02 465.43) rotate(166.54)"/><rect class="cls-2" x="928.91" y="310.74" width="36" height="72.23" rx="6.24" transform="translate(1948.55 463.77) rotate(166.54)"/><circle class="cls-11" cx="945.59" cy="341.24" r="11.38"/><path class="cls-17" d="M929.66,312.39h33.41a0,0,0,0,1,0,0v58.76a6.41,6.41,0,0,1-6.41,6.41H936.07a6.41,6.41,0,0,1-6.41-6.41V312.39A0,0,0,0,1,929.66,312.39Z" transform="translate(1947.04 460.2) rotate(166.54)"/><circle class="cls-18" cx="960.22" cy="356.09" r="2.58"/><circle class="cls-19" cx="961.8" cy="362.71" r="2.58"/><rect class="cls-11" x="933.29" y="322.17" width="20.03" height="20.03" transform="translate(1938.02 435.68) rotate(166.54)"/><rect class="cls-20" x="939.76" y="345.58" width="14.34" height="3.54" rx="1.77" transform="translate(1948.71 464.74) rotate(166.54)"/><rect class="cls-20" x="950.53" y="356.92" width="6.57" height="1.42" transform="translate(1964.67 483.42) rotate(166.54)"/><rect class="cls-20" x="952.11" y="363.53" width="6.57" height="1.42" transform="translate(1969.33 496.1) rotate(166.54)"/><circle class="cls-21" cx="946.14" cy="359.46" r="2.58"/><circle class="cls-22" cx="947.72" cy="366.08" r="2.58"/><rect class="cls-20" x="936.45" y="360.29" width="6.57" height="1.42" transform="translate(1937.68 493.34) rotate(166.54)"/><rect class="cls-20" x="938.03" y="366.9" width="6.57" height="1.42" transform="translate(1942.34 506.02) rotate(166.54)"/><rect class="cls-23" x="932.26" y="323.47" width="10.02" height="10.02" transform="translate(1925.25 429.78) rotate(166.54)"/><rect class="cls-23" x="944.33" y="330.88" width="10.02" height="10.02" transform="translate(1950.79 441.58) rotate(166.54)"/><path class="cls-6" d="M941.25,375h25.88a3.77,3.77,0,0,1,3.77,3.77v1.62a0,0,0,0,1,0,0H937.49a0,0,0,0,1,0,0v-1.62A3.77,3.77,0,0,1,941.25,375Z" transform="translate(1970.09 522.87) rotate(166.54)"/><path class="cls-25" d="M922.63,361c-6,6.74-7.6,15.5-3.7,19.55s5.4-5.48,11.35-12.22,10.82-8,10.18-12.19C939.48,349.87,928.57,354.23,922.63,361Z"/><path class="cls-26" d="M927.21,471.43c-50.29-37.66,14.35-30.16,41.54-105.36C1010.11,391.73,944.52,484.9,927.21,471.43Z"/><rect class="cls-25" x="1006.64" y="290.13" width="73.09" height="73.09" transform="translate(2086.38 653.35) rotate(-180)"/><ellipse class="cls-25" cx="1042.11" cy="246.8" rx="84.91" ry="95.98"/><path class="cls-26" d="M963.65,530.9H1127a239.59,239.59,0,0,1-5.61-74l5.61-70a50.22,50.22,0,0,0-50.32-50.11H1014a50.22,50.22,0,0,0-50.32,50.11l6,78.49a196.09,196.09,0,0,1-6,65.52Z"/><path class="cls-25" d="M964.85,270.77s-7.92,11-4.52,13.07,10,1.8,10,1.8"/><path class="cls-14" d="M954.2,207.77s31.72,32.09,36.22,75.24c3.68,35.29,107.05,94.25,137.75-10.61,0,0,17.47-38.93.38-69.28,7.6-73.25-143.09-63.76-159.26-58.31-35.41-23.53-41.55,4.15-41.55,4.15S911.48,186.3,954.2,207.77Z"/><ellipse class="cls-25" cx="985.7" cy="272.09" rx="16.31" ry="10.71" transform="translate(546.14 1195.36) rotate(-79.97)"/><rect class="cls-27" x="704.66" y="224.56" width="137.58" height="64.49" rx="7.74"/><rect class="cls-28" x="717.55" y="237.46" width="38.7" height="38.7"/><rect class="cls-20" x="772.37" y="255.74" width="40.85" height="4.3" rx="2.15"/><rect class="cls-20" x="772.37" y="266.48" width="53.74" height="4.3" rx="2.15"/><rect class="cls-20" x="772.37" y="244.99" width="45.14" height="4.3" rx="2.15"/></g><g id="Green_Blobs" data-name="Green Blobs"><path class="cls-29" d="M885,669.73s55.18,26.75,314.32-46.82c46.81,0-66.88,56.85,60.18,46.82s520-88.61,446.39-132.08c-83.05-49.08-399.66,92-341.1,30.93s-339.35-37.62-458,27.58S885,669.73,885,669.73Z"/><path class="cls-29" d="M861.57,612.7c4.62,3.52-3.56,10-10.19,18.73s-9.21,16.3-13.83,12.78-3-13.42,3.65-22.12S857,609.18,861.57,612.7Z"/><path class="cls-29" d="M1706.72,524.86c3.07,10.4-5.41,6.69-34.74-1.33-18.16-5-34.24,4-32.93-6.83s17.52-17.85,36.21-15.59S1703.64,514.36,1706.72,524.86Z"/><path class="cls-29" d="M1622.49,513.82c1.22,6.72-10.86,6.12-23.52,8.41s-21.09,6.61-22.31-.11,8.06-14,20.71-16.31S1621.28,507.11,1622.49,513.82Z"/><path class="cls-29" d="M1012.7,444.71s258.28-70.19,263,27.16-128.71,9.93-230.35,36.3C975.26,526.36,922.61,477.16,1012.7,444.71Z"/><path class="cls-29" d="M1382.84,785.49s220-12.31,198.34-89.56-103.1,25.69-189.34,31.51C1332.38,731.45,1304.05,783.55,1382.84,785.49Z"/><path class="cls-29" d="M248.17,431.8s12.75,26.51-82,183.72C44.26,817.61,18.63,735.92,33.59,668a100,100,0,0,1,27.89-50.77c85-82,49.64-90.84,30.32-90.83a137.3,137.3,0,0,1-30.92-3.32C-37.24,500.47,92,366,92,366"/><path class="cls-29" d="M5.4,711.09c5.76-9.19,8.6-.39,22.06,26.88,8.34,16.87,25.73,22.94,16.73,29.17s-25-1.27-35.68-16.75S-.4,720.37,5.4,711.09Z"/><path class="cls-29" d="M786.65,600s-45.45,16.89-243.87-60.59C505.93,535.9,584.5,617,485.24,599.5S89.29,462.71,150.47,434.05c69.08-32.35,342,134.8,295.51,60.7-35.55-56.65,240.61-14.56,329.12,45.73S786.65,600,786.65,600Z"/></g><g id="Dancers"><path class="cls-6" d="M1592.39,660.78l-16.94-12.19s.17-28.11,16.66-17.67c1.12.83,52.82,33.8,38.71,36.44C1623.87,669.69,1609.87,660.37,1592.39,660.78Z"/><path class="cls-6" d="M1469.16,827.44l21-7.14s24.57,18.73,5.42,26.63c-1.4.45-61.64,25.06-55.42,10.65C1442.28,849.8,1458.93,843.4,1469.16,827.44Z"/><path class="cls-25" d="M1506.89,541.59s12.47,10.17,26.75,13.63a25.85,25.85,0,0,0,29.07-13.42c9.81-18.83,5.9-46.74-22.39-89.84-17.53,6.69-18,6.18-18,6.18s43.06,92.46,6.18,64.9"/><path class="cls-25" d="M1515.33,454.84c6.29,3.88,12,8.48,15.47,2.79,1.45-2.36-2.47-7.41-8.76-11.29s-12.56-5.1-14-2.74S1509,451,1515.33,454.84Z"/><path class="cls-25" d="M1368.74,533.58s-28.62,43.34-7,80.21C1375,630.57,1385,629,1385,629s26.78-6.57,6.76-16.69c-11.66-8.41-20-16.81.29-63.53"/><path class="cls-25" d="M1400.11,622.33c-7.32,1-14.35,3-15.29-3.63-.39-2.74,5.22-5.81,12.53-6.85s13.56.34,14,3.09S1407.42,621.29,1400.11,622.33Z"/><ellipse class="cls-25" cx="1396.62" cy="630.03" rx="11.58" ry="19.15" transform="translate(148.7 1518.95) rotate(-59.74)"/><ellipse class="cls-25" cx="1528.02" cy="444.01" rx="11.58" ry="19.15" transform="translate(-53.46 619.87) rotate(-22.55)"/><path class="cls-25" d="M1411.59,487s18.39,1.67,15.05-25,26.75-1.64,26.75-1.64,5,31.77,25.08,18.33C1478.47,478.65,1445,542.24,1411.59,487Z"/><path class="cls-30" d="M1509.72,541.46a3.92,3.92,0,0,1-5.48-.34c-4.34-4.86-5.44-7.6-9.49-10.65a2.41,2.41,0,0,0-3.79,1.3c-2.38,9-7.85,39.38,5.9,95.74-5,3.34-35.11,31.76-75.24,16.72-6.49-26-8.36-45.14-13.63-108-.16-1.85-2.26-2.74-3.42-1.29-5.65,7-4.68,10.64-11.62,17-18.14-4.67-26.56-15.31-26.55-16.2.37-20.56,40.19-60.05,51.71-49.58,10.2,9.28,10.2,31,40.29,5.94,3.3-2.75,8.36-11.71,20.07-13.38,18.76-2.68,29.41,24.94,51.34,41.87a2.16,2.16,0,0,1,.12,3.36Z"/><path class="cls-31" d="M1469.75,442.44c-7.07,25.7-28.3,42.26-47.41,37s-28.86-30.35-21.79-56.05,27-30.68,46.09-25.42S1476.82,416.74,1469.75,442.44Z"/><path class="cls-32" d="M1402.07,418.71s-27.54-12.16-12.09-34.48c13.74-17.17,35.65-12.85,44.64-1.71,3.47,4.29,27.47,3.43,37.77,22.32h0c9.1,3.64,6.51,22.35,1.72,30.9l-8.58,18.89s-10.31,39.49-13.74-24C1451,416.45,1424.22,410.23,1402.07,418.71Z"/><path class="cls-33" d="M1096.23,436.22A90,90,0,0,0,1099,448c-6.69,8.49-38.45,51-20.06,83.24-1.67,11.89,11.7,30.57,26.75,25.48,8.36,8.49,33.44,61.15,61.86,22.08,23.4,3.4,66.87,3.4,58.51-32.28,10-3.39,21.74-35.67-5-61.15-8.36-23.78-8.36-44.16-30.1-54.35-1.17-4.38-2.44-9.88-4.2-15.75C1169.84,359.25,1087.19,378.36,1096.23,436.22Z"/><polygon class="cls-25" points="1028.73 644.23 1033.91 657.49 1047.12 664.29 1058.83 654.26 1052.14 625.84 1028.73 644.23"/><polyline class="cls-25" points="1142.42 818.1 1167.5 821.44 1164.15 848.19 1140.75 839.84 1142.42 818.1"/><path class="cls-25" d="M1129.05,629.18s3.34-23.41,0-38.45S1209.29,574,1209.29,574s10,43.47,6.69,55.17C1213.3,638.55,1145.76,660.94,1129.05,629.18Z"/><path class="cls-25" d="M1082.23,467c-25.08-13.38-38.45-86.94-38.45-86.94l-20.06,3.34c1.67,85.27,31.76,103.66,31.76,103.66Z"/><path class="cls-25" d="M1046.17,365c0,14.32-2.75,25.13-12.14,25.13s-17-11.6-17-25.91,7.61-25.92,17-25.92S1046.17,350.66,1046.17,365Z"/><path class="cls-25" d="M1050.88,374.86c-4.45,5.77-10.16,8.8-12.76,6.76s.51-6.65,5-12.42,8.52-10.52,11.13-8.48S1055.32,369.08,1050.88,374.86Z"/><path class="cls-25" d="M1225.5,358c2,14.17,6.21,24.51,15.51,23.2s15.22-13.84,13.24-28-11.13-24.61-20.43-23.3S1223.52,343.81,1225.5,358Z"/><path class="cls-25" d="M1222.21,368.42c5.2,5.1,11.28,7.31,13.57,4.93s-1.43-6.51-6.63-11.61-9.89-9.24-12.19-6.86S1217,363.32,1222.21,368.42Z"/><path class="cls-25" d="M1112.33,492.09c-5-8.36,23.4,6.68,18.39-21.74l31.76-3.34s5,28.42,25.08,16.72c15.55-9.08-21.73,46.81-21.73,46.81S1124,515.49,1112.33,492.09Z"/><path class="cls-25" d="M1212.64,463.66s25.08-40.12,16.72-90.28c13.37-3.34,20.06-3.34,20.06-3.34s20.06,76.91-10,108.67S1212.64,463.66,1212.64,463.66Z"/><path class="cls-31" d="M1178.86,431.13c3.79,27.45-7.58,51.68-25.4,54.14s-35.34-17.79-39.13-45.23,15.28-15.71,33.11-18.17S1175.08,403.69,1178.86,431.13Z"/><path id="Pants-2" data-name="Pants" class="cls-34" d="M1216,629.18c-1.67,25.08-16.72,173.87-38.45,199-11.7-3.34-23.41,8.36-45.14-10,10-18.39,35.11-95.3,31.76-135.42,0,51.83-70.21,150.47-135.42-21.74l35.11-23.4s14.28,60.7,34.82,74.65c5.34,3.63,12.69.94,14.85-5.15,11.24-31.8,15.54-76.19,15.54-76.19S1180.87,645.9,1216,629.18Z"/><path id="Shirt-2" data-name="Shirt" class="cls-35" d="M1078.89,462c-12.76,6.83-21.46,10.1-26.75,26.75A542.49,542.49,0,0,0,1109,537.23c6.69,16.72,10,50.15,11.71,65.2,13.37,0,56.84,8.36,97-8.36,0-20.28-9.1-49.66-11.89-61.08-1-3.93-1.5-9.16,1.8-11.5,8.42-6,21.8-21,36.84-42.78-11.7-13.37-31.76-20.06-31.76-20.06s-6.69,5-28.42,26.75c-13.38,28.42-48.49,26.75-73.57,0C1108.89,483.52,1084.18,467.28,1078.89,462Z"/><path id="Boob" class="cls-35" d="M1184.22,503.79s58.51,10,3.34,50.16"/><path id="Pants-3" data-name="Pants" class="cls-36" d="M1418.28,629.18c1.67,25.08,21.73,173.87,43.47,199,3.34,5,13.37,11.7,35.11-6.69-10-18.39-30.1-98.64-26.75-138.76,0,51.83,60.18,150.47,125.39-21.74l-20.07-15s-19.29,52.34-39.83,66.29c-5.34,3.63-12.69.94-14.85-5.15-11.24-31.8-23.89-79.53-23.89-79.53S1453.39,645.9,1418.28,629.18Z"/><path class="cls-25" d="M1191.86,854.13c-.39,3.27-10.28,4.77-22.09,3.35s-19.39-14.37-19-17.65,9.42,1.47,20.06,5C1185.89,849.87,1192.26,850.85,1191.86,854.13Z"/><path class="cls-25" d="M1016.37,656.25c-2.46-2.2,2-11.16,9.92-20s22.9-7.64,25.36-5.43-6.61,6.87-15.62,13.55C1023.28,653.81,1018.82,658.45,1016.37,656.25Z"/><path class="cls-37" d="M1205.79,855.56c-3.42-5.26-47.12-8.83-61.1-17.59a6.55,6.55,0,0,0-7.52.18c-4.42,3.38-9.84,10.06-4.31,20.49,18.26,4.62,59.9,6.1,72.92-.25C1206.89,857.84,1206.51,856.66,1205.79,855.56Z"/><path class="cls-37" d="M1005.18,670.12c6.27-.24,31.77-35.91,46.46-43.4a6.54,6.54,0,0,0,3.71-6.55c-.63-5.52-3.58-13.6-15.37-14.21-13.34,13.29-36,48.27-37.22,62.7C1002.66,669.9,1003.87,670.17,1005.18,670.12Z"/></g><g id="Phone-2" data-name="Phone"><rect class="cls-16" x="108.4" y="189.43" width="252.07" height="504.72" rx="43.64" transform="translate(-128.29 97.45) rotate(-18.54)"/><rect class="cls-2" x="122.93" y="184.87" width="252.07" height="505.73" rx="43.68" transform="translate(-126.24 101.86) rotate(-18.54)"/><path class="cls-17" d="M170.72,196.73H316.12a44.3,44.3,0,0,1,44.3,44.3V641.39a0,0,0,0,1,0,0h-234a0,0,0,0,1,0,0V241a44.3,44.3,0,0,1,44.3-44.3Z" transform="translate(-120.6 99.13) rotate(-18.54)"/><circle class="cls-18" cx="204.21" cy="542" r="18.06"/><circle class="cls-19" cx="219.35" cy="587.16" r="18.06"/><rect class="cls-11" x="145.83" y="267.14" width="140.26" height="140.26" transform="translate(-96.02 86.15) rotate(-18.54)"/><rect class="cls-20" x="200.45" y="428.37" width="100.41" height="24.75" rx="12.38" transform="translate(-127.11 102.55) rotate(-18.54)"/><rect class="cls-20" x="224.97" y="522.35" width="45.97" height="9.96" transform="matrix(0.95, -0.32, 0.32, 0.95, -154.78, 106.19)"/><rect class="cls-20" x="240.11" y="567.51" width="45.97" height="9.96" transform="translate(-168.35 113.34) rotate(-18.54)"/><circle class="cls-21" cx="300.34" cy="509.76" r="18.06"/><circle class="cls-22" cx="315.48" cy="554.92" r="18.06"/><rect class="cls-20" x="321.1" y="490.11" width="45.97" height="9.96" transform="translate(-139.55 135.07) rotate(-18.54)"/><rect class="cls-20" x="336.24" y="535.27" width="45.97" height="9.96" transform="translate(-153.12 142.23) rotate(-18.54)"/><rect class="cls-23" x="202.99" y="257.81" width="70.13" height="70.13" transform="translate(-80.76 90.88) rotate(-18.54)"/><rect class="cls-23" x="158.8" y="346.6" width="70.13" height="70.13" transform="translate(-111.28 81.43) rotate(-18.54)"/><path class="cls-6" d="M203.1,628.9h234a0,0,0,0,1,0,0v0a37.75,37.75,0,0,1-37.75,37.75H240.85A37.75,37.75,0,0,1,203.1,628.9v0A0,0,0,0,1,203.1,628.9Z" transform="translate(-189.33 135.36) rotate(-18.54)"/></g><g id="Musical_Notes-2" data-name="Musical Notes"><circle cx="94.15" cy="176.15" r="10.43"/><rect x="101.04" y="135.61" width="8.64" height="44.62" rx="3.63" transform="translate(44.39 -21.86) rotate(14.98)"/><circle cx="119.17" cy="182.85" r="10.43"/><rect x="126.07" y="142.31" width="8.64" height="44.62" rx="3.63" transform="translate(46.97 -28.1) rotate(14.98)"/><rect x="105.16" y="139.56" width="34.54" height="9.36" rx="3.66" transform="matrix(0.97, 0.26, -0.26, 0.97, 41.44, -26.74)"/><circle cx="174.07" cy="149.23" r="10.43"/><rect x="168.66" y="105.55" width="8.64" height="44.62" rx="3.63" transform="translate(-32.8 65.22) rotate(-19.54)"/><circle cx="198.48" cy="140.56" r="10.43"/><rect x="193.07" y="96.88" width="8.64" height="44.62" rx="3.63" transform="translate(-28.5 72.89) rotate(-19.54)"/><rect x="162.01" y="102.23" width="34.54" height="9.36" rx="3.66" transform="translate(-25.43 66.13) rotate(-19.54)"/><circle cx="255.96" cy="139.21" r="10.16"/><rect x="266.46" y="102.71" width="8.41" height="43.45" rx="3.54" transform="matrix(0.88, 0.47, -0.47, 0.88, 91.2, -113.34)"/><circle cx="230.22" cy="105.93" r="10.16"/><rect x="234.71" y="65.27" width="8.41" height="43.45" rx="3.54" transform="translate(14.56 -32.64) rotate(8.06)"/><circle cx="136.5" cy="112.49" r="7.67"/><rect x="131.13" y="80.51" width="6.35" height="32.8" rx="2.67" transform="translate(-28.18 64.84) rotate(-24.65)"/><circle cx="278.18" cy="151.15" r="10.16"/><rect x="288.68" y="114.66" width="8.41" height="43.45" rx="3.54" transform="translate(99.5 -122.43) rotate(28.26)"/><rect x="273.08" y="110.73" width="33.64" height="9.11" rx="3.57" transform="translate(89.16 -123.54) rotate(28.26)"/><circle cx="167.34" cy="66.38" r="12.7"/><rect x="174.99" y="16.61" width="10.51" height="54.3" rx="4.42" transform="translate(14.59 -39.69) rotate(13.09)"/><circle cx="198.05" cy="73.52" r="12.7"/><rect x="205.69" y="23.75" width="10.51" height="54.3" rx="4.42" transform="translate(17.01 -46.46) rotate(13.09)"/><rect x="179.44" y="20.74" width="42.03" height="11.38" rx="4.46" transform="translate(11.2 -44.72) rotate(13.09)"/><circle cx="285.6" cy="74.94" r="12.7"/><rect x="272.07" y="23.1" width="10.51" height="54.3" rx="4.42" transform="translate(21.6 168.73) rotate(-35.13)"/><circle cx="311.38" cy="56.8" r="12.7"/><rect x="297.86" y="4.96" width="10.51" height="54.3" rx="4.42" transform="translate(36.74 180.27) rotate(-35.13)"/><rect x="256.86" y="17.94" width="42.03" height="11.38" rx="4.46" transform="translate(37.02 164.2) rotate(-35.13)"/><circle cx="1115.29" cy="340.71" r="12.85"/><rect x="1108.1" y="286.97" width="10.63" height="54.93" rx="4.47" transform="translate(-39.27 413.82) rotate(-20.7)"/><circle cx="1145.13" cy="329.44" r="12.85"/><rect x="1137.93" y="275.69" width="10.63" height="54.93" rx="4.47" transform="translate(-33.36 423.64) rotate(-20.7)"/><rect x="1099.4" y="282.73" width="42.52" height="11.52" rx="4.51" transform="translate(-29.63 414.71) rotate(-20.7)"/><circle cx="1309.5" cy="357.19" r="10.43"/><rect x="1303.65" y="313.53" width="8.64" height="44.62" rx="3.63" transform="translate(-34.28 483.97) rotate(-20.7)"/><circle cx="1333.73" cy="348.03" r="10.43"/><rect x="1327.89" y="304.38" width="8.64" height="44.62" rx="3.63" transform="matrix(0.94, -0.35, 0.35, 0.94, -29.48, 491.95)"/><rect x="1296.59" y="310.09" width="34.54" height="9.36" rx="3.66" transform="translate(-26.45 484.69) rotate(-20.7)"/><circle cx="1496.16" cy="364.85" r="10.43"/><rect x="1506.23" y="326.7" width="8.64" height="44.62" rx="3.63" transform="translate(299.88 -619.42) rotate(25.65)"/><circle cx="1519.51" cy="376.06" r="10.43"/><rect x="1529.59" y="337.91" width="8.64" height="44.62" rx="3.63" transform="translate(307.04 -628.42) rotate(25.65)"/><rect x="1512.59" y="334.04" width="34.54" height="9.36" rx="3.66" transform="translate(297.33 -628.79) rotate(25.65)"/><circle cx="1396.17" cy="297.94" r="10.43"/><rect x="1403.05" y="257.39" width="8.64" height="44.62" rx="3.63" transform="translate(119.86 -353.74) rotate(14.96)"/><circle cx="1421.2" cy="304.62" r="10.43"/><rect x="1428.08" y="264.08" width="8.64" height="44.62" rx="3.63" transform="translate(122.44 -359.97) rotate(14.96)"/><rect x="1407.16" y="261.33" width="34.54" height="9.36" rx="3.66" transform="translate(116.91 -358.61) rotate(14.96)"/><circle cx="1033.61" cy="312.29" r="10.43"/><rect x="1031.55" y="268.7" width="8.64" height="44.62" rx="3.63" transform="translate(-35.79 194.82) rotate(-10.56)"/><circle cx="1059.08" cy="307.54" r="10.43"/><rect x="1057.02" y="263.95" width="8.64" height="44.62" rx="3.63" transform="translate(-34.49 199.4) rotate(-10.56)"/><rect x="1028.1" y="266.62" width="34.54" height="9.36" rx="3.66" transform="translate(-32.02 196.22) rotate(-10.56)"/><circle cx="1247.96" cy="292.21" r="10.16"/><rect x="1258.46" y="255.71" width="8.41" height="43.45" rx="3.54" transform="translate(281.93 -564.85) rotate(28.26)"/><circle cx="1270.18" cy="304.15" r="10.16"/><rect x="1280.68" y="267.66" width="8.41" height="43.45" rx="3.54" transform="translate(290.24 -573.95) rotate(28.26)"/><rect x="1265.08" y="263.73" width="33.64" height="9.11" rx="3.57" transform="translate(279.89 -575.05) rotate(28.26)"/></g></g></svg>