<svg width="20" height="20" viewBox="0 0 20 20" fill="none" xmlns="http://www.w3.org/2000/svg">
<g clip-path="url(#clip0_659_318)">
<path d="M7.13563 2.0375C7.13563 1.7675 7.16501 1.60437 7.62688 1.60437H13.8475C14.9313 1.60437 15.5338 2.52875 15.9669 4.26375L16.315 5.65375H17.3731C17.565 1.71187 17.7313 -0.00062561 17.7313 -0.00062561C17.7313 -0.00062561 15.0688 0.298749 13.49 0.298749H5.53438L1.27313 0.161874V1.30437L2.70876 1.57437C3.71813 1.77625 3.95876 1.9875 4.04313 2.9125C4.04313 2.9125 4.13438 5.64062 4.13438 10.1131C4.13438 14.6019 4.05938 17.2875 4.05938 17.2875C4.05938 18.1013 3.73376 18.4006 2.73438 18.5994L1.29876 18.8763V19.9994L5.57313 19.8625H12.6988C14.3131 19.8625 18.0244 19.9994 18.0244 19.9994C18.1125 19.0225 18.6494 14.5988 18.7375 14.1138H17.7381L16.6669 16.5388C15.83 18.4363 14.6031 18.5731 13.2425 18.5731H9.15376C7.79626 18.5731 7.14188 18.0425 7.14188 16.8675V10.6663C7.14188 10.6663 10.1563 10.6663 11.1325 10.7444C11.8913 10.8 12.35 11.0181 12.5975 12.0756L12.9231 13.4881H14.0981L14.0231 9.92375L14.1825 6.33625H13.0238L12.6494 7.91188C12.415 8.94688 12.2488 9.13563 11.1875 9.24625C9.80063 9.38625 7.17376 9.36 7.17376 9.36V2.03875H7.13438L7.13563 2.0375Z" fill="white"/>
</g>
<defs>
<clipPath id="clip0_659_318">
<rect width="20" height="20" fill="white"/>
</clipPath>
</defs>
</svg>
