<svg width="20" height="20" viewBox="0 0 20 20" fill="none" xmlns="http://www.w3.org/2000/svg">
<path fill-rule="evenodd" clip-rule="evenodd" d="M5.87727 0.0599999C6.94363 0.0109091 7.28363 0 9.99999 0C12.7164 0 13.0564 0.0118182 14.1218 0.0599999C15.1873 0.108182 15.9145 0.278182 16.5509 0.524545C17.2173 0.776363 17.8218 1.17 18.3218 1.67909C18.8309 2.17818 19.2236 2.78182 19.4745 3.44909C19.7218 4.08545 19.8909 4.81272 19.94 5.87636C19.9891 6.94454 20 7.28454 20 9.99999C20 12.7164 19.9882 13.0564 19.94 14.1227C19.8918 15.1863 19.7218 15.9136 19.4745 16.55C19.2236 17.2173 18.8302 17.822 18.3218 18.3218C17.8218 18.8309 17.2173 19.2236 16.5509 19.4745C15.9145 19.7218 15.1873 19.8909 14.1236 19.94C13.0564 19.9891 12.7164 20 9.99999 20C7.28363 20 6.94363 19.9882 5.87727 19.94C4.81363 19.8918 4.08636 19.7218 3.45 19.4745C2.78265 19.2236 2.17802 18.8302 1.67818 18.3218C1.16944 17.8224 0.77574 17.2181 0.524545 16.5509C0.278182 15.9145 0.109091 15.1873 0.0599999 14.1236C0.0109091 13.0554 0 12.7154 0 9.99999C0 7.28363 0.0118182 6.94363 0.0599999 5.87818C0.108182 4.81272 0.278182 4.08545 0.524545 3.44909C0.776111 2.78189 1.17011 2.17756 1.67909 1.67818C2.17822 1.16955 2.78224 0.775857 3.44909 0.524545C4.08545 0.278182 4.81272 0.109091 5.87636 0.0599999H5.87727ZM14.0409 1.86C12.9864 1.81182 12.67 1.80182 9.99999 1.80182C7.32999 1.80182 7.01363 1.81182 5.95909 1.86C4.98363 1.90454 4.45454 2.06727 4.10181 2.20454C3.63545 2.38636 3.30182 2.60182 2.95182 2.95182C2.62004 3.27459 2.36471 3.66753 2.20454 4.10181C2.06727 4.45454 1.90454 4.98363 1.86 5.95909C1.81182 7.01363 1.80182 7.32999 1.80182 9.99999C1.80182 12.67 1.81182 12.9864 1.86 14.0409C1.90454 15.0163 2.06727 15.5454 2.20454 15.8982C2.36454 16.3318 2.62 16.7254 2.95182 17.0482C3.27454 17.38 3.66818 17.6354 4.10181 17.7954C4.45454 17.9327 4.98363 18.0954 5.95909 18.14C7.01363 18.1882 7.32908 18.1982 9.99999 18.1982C12.6709 18.1982 12.9864 18.1882 14.0409 18.14C15.0163 18.0954 15.5454 17.9327 15.8982 17.7954C16.3645 17.6136 16.6982 17.3982 17.0482 17.0482C17.38 16.7254 17.6354 16.3318 17.7954 15.8982C17.9327 15.5454 18.0954 15.0163 18.14 14.0409C18.1882 12.9864 18.1982 12.67 18.1982 9.99999C18.1982 7.32999 18.1882 7.01363 18.14 5.95909C18.0954 4.98363 17.9327 4.45454 17.7954 4.10181C17.6136 3.63545 17.3982 3.30182 17.0482 2.95182C16.7254 2.62006 16.3324 2.36473 15.8982 2.20454C15.5454 2.06727 15.0163 1.90454 14.0409 1.86V1.86ZM8.72272 13.0827C9.43604 13.3797 10.2303 13.4197 10.9699 13.1961C11.7095 12.9725 12.3485 12.499 12.7778 11.8566C13.2071 11.2141 13.4 10.4426 13.3237 9.67372C13.2473 8.90485 12.9064 8.18633 12.3591 7.6409C12.0102 7.29224 11.5884 7.02528 11.1239 6.85922C10.6595 6.69316 10.164 6.63214 9.67317 6.68055C9.18232 6.72897 8.70831 6.88561 8.28527 7.1392C7.86222 7.3928 7.50067 7.73703 7.22663 8.14713C6.95259 8.55723 6.77289 9.02298 6.70046 9.51086C6.62803 9.99875 6.66468 10.4966 6.80776 10.9686C6.95084 11.4407 7.19679 11.8751 7.52792 12.2406C7.85905 12.6062 8.26711 12.8938 8.72272 13.0827ZM6.36545 6.36545C6.84274 5.88815 7.40937 5.50954 8.03299 5.25123C8.65661 4.99292 9.32499 4.85997 9.99999 4.85997C10.675 4.85997 11.3434 4.99292 11.967 5.25123C12.5906 5.50954 13.1572 5.88815 13.6345 6.36545C14.1118 6.84274 14.4904 7.40937 14.7487 8.03299C15.0071 8.65661 15.14 9.32499 15.14 9.99999C15.14 10.675 15.0071 11.3434 14.7487 11.967C14.4904 12.5906 14.1118 13.1572 13.6345 13.6345C12.6706 14.5985 11.3632 15.14 9.99999 15.14C8.63677 15.14 7.32939 14.5985 6.36545 13.6345C5.40151 12.6706 4.85997 11.3632 4.85997 9.99999C4.85997 8.63677 5.40151 7.32939 6.36545 6.36545V6.36545ZM16.28 5.62545C16.3983 5.51388 16.4929 5.3797 16.5584 5.23088C16.6239 5.08206 16.6589 4.9216 16.6613 4.75902C16.6636 4.59644 16.6334 4.43504 16.5722 4.28437C16.5111 4.1337 16.4204 3.99682 16.3054 3.88185C16.1904 3.76688 16.0536 3.67614 15.9029 3.61501C15.7522 3.55389 15.5908 3.52361 15.4282 3.52598C15.2656 3.52835 15.1052 3.56332 14.9564 3.62881C14.8075 3.6943 14.6734 3.78899 14.5618 3.90727C14.3448 4.1373 14.226 4.44283 14.2306 4.75902C14.2352 5.07521 14.3629 5.37716 14.5865 5.60076C14.8101 5.82436 15.112 5.95202 15.4282 5.95663C15.7444 5.96124 16.05 5.84244 16.28 5.62545V5.62545Z" fill="white"/>
</svg>
