<?xml version="1.0" encoding="utf-8"?>
<!-- Generator: Adobe Illustrator 23.0.4, SVG Export Plug-In . SVG Version: 6.00 Build 0)  -->
<svg version="1.1" xmlns="http://www.w3.org/2000/svg" xmlns:xlink="http://www.w3.org/1999/xlink" x="0px" y="0px"
	 viewBox="0 0 900 900" style="enable-background:new 0 0 900 900;" xml:space="preserve">
<style type="text/css">
	.st0{display:none;}
	.st1{display:inline;}
	.st2{fill:#73CEE0;}
	.st3{fill:#BCE3E6;}
	.st4{fill:#333333;}
	.st5{fill:#585959;}
	.st6{fill:#4D4D4D;}
	.st7{fill:#F8C09C;}
	.st8{fill:#EF937E;}
	.st9{fill:#F8B598;}
	.st10{fill:#9A605B;}
	.st11{fill:none;stroke:#394D5C;stroke-width:8.0497;stroke-linecap:round;stroke-miterlimit:10;}
	.st12{fill:none;stroke:#394D5C;stroke-width:8.5084;stroke-linecap:round;stroke-miterlimit:10;}
	.st13{fill:none;stroke:#394D5C;stroke-width:11.0527;stroke-linecap:round;stroke-miterlimit:10;}
	.st14{fill:none;stroke:#394D5C;stroke-width:7.8828;stroke-linecap:round;stroke-miterlimit:10;}
	.st15{fill:#FFFFFF;}
	.st16{fill:#B31F48;}
	.st17{fill:#F8C09C;stroke:#F8C09C;stroke-width:5.3803;stroke-miterlimit:10;}
</style>
<g id="Background" class="st0">
	<g class="st1">
		<rect y="-1.3" class="st2" width="900" height="900.1"/>
	</g>
</g>
<g id="alt_back">
	<g>
		<rect y="-1.3" class="st3" width="900" height="900.1"/>
	</g>
</g>
<g id="Layer_1">
	<g>
		<title>self</title>
		<g id="Hair">
			<path class="st4" d="M341.2,119.5h217.7c48.6,0,88.1,39.5,88.1,88.1l0,0V359l0,0H253.1l0,0V207.6
				C253.1,158.9,292.6,119.5,341.2,119.5L341.2,119.5z"/>
			<ellipse class="st4" cx="450.1" cy="173.6" rx="132.8" ry="111.6"/>
		</g>
		<g id="Shirt">
			<path class="st5" d="M607.2,653.9H292.6c-135.2,0-244.7,114.6-244.7,256v0.1h804C851.9,768.7,742.4,653.9,607.2,653.9
				L607.2,653.9z"/>
			<path class="st6" d="M574.7,653.9c-0.2,70.7-55,127.9-122.6,128.1h-5c-67.5-0.2-122.1-57.4-122.4-128.1"/>
		</g>
		<g id="Head">
			<path id="Neck" class="st7" d="M449.9,371.5L449.9,371.5c59.5,0,107.8,48.3,107.8,107.7v163.3c0,59.5-48.3,107.7-107.7,107.7l0,0
				c-59.5,0-107.7-48.3-107.7-107.7V479.2C342.2,419.6,390.5,371.5,449.9,371.5z"/>
			<path id="Neck_shadow" class="st8" d="M449.9,321.5L449.9,321.5c59.5,0,107.8,48.3,107.8,107.7v163.3
				c0,59.5-48.3,107.7-107.7,107.7l0,0c-59.5,0-107.7-48.3-107.7-107.7V429.2C342.2,369.8,390.5,321.5,449.9,321.5z"/>
			<path id="FACE_Shadow" class="st9" d="M642.1,387.3c0,162-86,293.3-192.1,293.3S258.2,549.3,258.2,387.3s85.7-226.8,191.9-226.8
				S642.1,225.3,642.1,387.3z"/>
			<path id="FACE" class="st7" d="M644.1,375.7c0,163.7-86.9,296.5-194.2,296.5S255.7,539.4,255.7,375.7s86.9-229.4,194.2-229.4
				S644.1,211.8,644.1,375.7z"/>
			<path class="st4" d="M504.2,202.7L504.2,202.7c-18.1,31.4-58.3,42.1-89.7,24l-61.9-35.8C316.6,170.1,304.2,124,325,88l32.9-56.7
				l0,0l118.6,68.6C512.7,120.6,525.1,166.6,504.2,202.7C504.3,202.7,504.3,202.7,504.2,202.7z"/>
			<path class="st4" d="M492.3,141.9L492.3,141.9c-11.7,20.2-37.5,27.1-57.6,15.5l0,0L395,134.5c-23.1-13.4-31.2-43-17.8-66.1
				c0-0.1,0.1-0.1,0.1-0.2l21-36.5l0,0l76.2,43.9c23.2,13.3,31.3,42.9,17.9,66.1C492.4,141.8,492.4,141.9,492.3,141.9z"/>
			<circle class="st10" cx="587.9" cy="481.8" r="7"/>
			<path class="st4" d="M541.8,104.3c-40.5,0-75.5,27.1-91.3,65.9c-16-38.8-51-65.9-91.8-65.9c-55.8,0-101.1,50.5-101.1,112.9
				s45.3-8.4,101.1-8.4c40.8,0,75,33.9,91.8,33.9l0,0c16,3.7,50.8-33.9,91.3-33.9c55.5,0,100.5,70.9,100.5,8.4
				S597.3,104.3,541.8,104.3z"/>
			<path class="st11" d="M633.2,223.1c0-54.8-37.8-99.1-84.5-99.1"/>
			<path class="st12" d="M465.8,248.6"/>
			<path class="st13" d="M357.2,61.5l-11.4,21.4c-12.3,23.1,1.1,54.2,29.8,69.4"/>
			<path class="st14" d="M407.6,53.7l-8.4,15.9c-9.1,17.2-0.6,39.5,18.9,50.1"/>
			<ellipse class="st7" cx="640" cy="380.6" rx="43" ry="57.1"/>
			<path class="st8" d="M642.3,411.9c11.7-1.9,20.9-15,20.9-31.1s-8.8-28.9-20.3-31c0.5,8.4,1,17.3,1,26.5
				C643.8,388.4,643.3,400.2,642.3,411.9z"/>
			<ellipse class="st7" cx="258" cy="380.6" rx="43" ry="57.1"/>
			<path class="st8" d="M255.4,411.9c-11.7-1.9-20.9-15-20.9-31.1s8.8-28.9,20.3-31c-0.5,8.4-0.8,17.3-0.8,26.5
				C254,388.4,254.6,400.2,255.4,411.9z"/>
		</g>
		<g id="Mouth">
			<path class="st4" d="M398.4,583.1c7.5-28.5,36.8-45.4,65.3-37.9c18.5,4.9,33,19.4,37.9,37.9c22-12.5,38.7-32.6,47.2-56.5H351.1
				C359.6,550.5,376.4,570.5,398.4,583.1z"/>
			<path class="st15" d="M345.1,489.1v2.9c0,11.8,2.1,23.5,6,34.6h197.7c3.9-11.1,6-22.8,6-34.6v-2.9L345.1,489.1L345.1,489.1z"/>
			<path class="st16" d="M449.9,543.4c-24.2,0-45.3,16.3-51.6,39.7c31.9,18.4,71.2,18.4,103.1,0
				C495.4,559.7,474.1,543.5,449.9,543.4z"/>
		</g>
		<g id="Nose">
			<path class="st8" d="M450.1,297L450.1,297c24.6,0,44.6,20,44.6,44.6V409c0,24.6-20,44.6-44.6,44.6l0,0c-24.6,0-44.6-20-44.6-44.6
				v-67.5C405.5,316.9,425.4,297,450.1,297z"/>
			<path class="st17" d="M450.1,288L450.1,288c24.6,0,44.6,20,44.6,44.6v67.5c0,24.6-20,44.6-44.6,44.6l0,0
				c-24.6,0-44.6-20-44.6-44.6v-67.5C405.5,308,425.4,288,450.1,288z"/>
		</g>
		<g id="Eyes">
			<circle cx="345.1" cy="340.9" r="24.5"/>
			<circle cx="554.9" cy="340.9" r="24.5"/>
		</g>
	</g>
</g>
</svg>
